<svg width="15" height="15" viewBox="0 0 15 15" fill="none" xmlns="http://www.w3.org/2000/svg">
<path d="M12.6031 7.62451H7.48438V2.50576C7.48438 2.06701 7.19187 1.77451 6.75312 1.77451C3.09687 1.77451 0.171875 4.69951 0.171875 8.35576C0.171875 12.012 3.09687 14.937 6.75312 14.937C10.4094 14.937 13.3344 12.012 13.3344 8.35576C13.3344 7.91701 13.0419 7.62451 12.6031 7.62451ZM7.48438 13.4014C4.70563 13.8401 2.07312 11.8658 1.7075 9.08701C1.26875 6.30826 3.24312 3.67576 6.02187 3.31014V8.35576C6.02187 8.79451 6.31437 9.08701 6.75312 9.08701H11.7987C11.5062 11.3539 9.75125 13.1089 7.48438 13.4014ZM9.67812 0.312012C9.23938 0.312012 8.94687 0.604512 8.94687 1.04326V5.43076C8.94687 5.86951 9.23938 6.16201 9.67812 6.16201H14.0656C14.5044 6.16201 14.7969 5.86951 14.7969 5.43076C14.7969 2.57889 12.53 0.312012 9.67812 0.312012ZM10.4094 4.69951V1.84764C11.8719 2.14014 12.9687 3.23701 13.2612 4.69951H10.4094Z" fill="#A4B4CB"/>
</svg>
