<svg width="15" height="15" viewBox="0 0 15 15" fill="none" xmlns="http://www.w3.org/2000/svg">
<path d="M7.48438 3.18672C7.29044 3.18672 7.10444 3.26376 6.9673 3.4009C6.83017 3.53803 6.75312 3.72403 6.75312 3.91797V11.2305C6.75312 11.4244 6.83017 11.6104 6.9673 11.7475C7.10444 11.8847 7.29044 11.9617 7.48438 11.9617C7.67831 11.9617 7.86431 11.8847 8.00145 11.7475C8.13858 11.6104 8.21562 11.4244 8.21562 11.2305V3.91797C8.21562 3.72403 8.13858 3.53803 8.00145 3.4009C7.86431 3.26376 7.67831 3.18672 7.48438 3.18672ZM3.82812 7.57422C3.63419 7.57422 3.44819 7.65126 3.31105 7.7884C3.17392 7.92553 3.09687 8.11153 3.09687 8.30547V11.2305C3.09687 11.4244 3.17392 11.6104 3.31105 11.7475C3.44819 11.8847 3.63419 11.9617 3.82812 11.9617C4.02206 11.9617 4.20806 11.8847 4.3452 11.7475C4.48233 11.6104 4.55937 11.4244 4.55937 11.2305V8.30547C4.55937 8.11153 4.48233 7.92553 4.3452 7.7884C4.20806 7.65126 4.02206 7.57422 3.82812 7.57422ZM11.1406 6.11172C10.9467 6.11172 10.7607 6.18876 10.6236 6.3259C10.4864 6.46303 10.4094 6.64903 10.4094 6.84297V11.2305C10.4094 11.4244 10.4864 11.6104 10.6236 11.7475C10.7607 11.8847 10.9467 11.9617 11.1406 11.9617C11.3346 11.9617 11.5206 11.8847 11.6577 11.7475C11.7948 11.6104 11.8719 11.4244 11.8719 11.2305V6.84297C11.8719 6.64903 11.7948 6.46303 11.6577 6.3259C11.5206 6.18876 11.3346 6.11172 11.1406 6.11172ZM12.6031 0.261719H2.36562C1.78381 0.261719 1.22582 0.492845 0.81441 0.904253C0.403002 1.31566 0.171875 1.87365 0.171875 2.45547V12.693C0.171875 13.2748 0.403002 13.8328 0.81441 14.2442C1.22582 14.6556 1.78381 14.8867 2.36562 14.8867H12.6031C13.1849 14.8867 13.7429 14.6556 14.1543 14.2442C14.5657 13.8328 14.7969 13.2748 14.7969 12.693V2.45547C14.7969 1.87365 14.5657 1.31566 14.1543 0.904253C13.7429 0.492845 13.1849 0.261719 12.6031 0.261719ZM13.3344 12.693C13.3344 12.8869 13.2573 13.0729 13.1202 13.21C12.9831 13.3472 12.7971 13.4242 12.6031 13.4242H2.36562C2.17169 13.4242 1.98569 13.3472 1.84855 13.21C1.71142 13.0729 1.63437 12.8869 1.63437 12.693V2.45547C1.63437 2.26153 1.71142 2.07553 1.84855 1.9384C1.98569 1.80126 2.17169 1.72422 2.36562 1.72422H12.6031C12.7971 1.72422 12.9831 1.80126 13.1202 1.9384C13.2573 2.07553 13.3344 2.26153 13.3344 2.45547V12.693Z" fill="#A4B4CB"/>
</svg>
