<svg width="14" height="16" viewBox="0 0 14 16" fill="none" xmlns="http://www.w3.org/2000/svg">
<path d="M12.6071 4.91721L8.2196 1.07083C7.8174 0.71109 7.29671 0.512207 6.7571 0.512207C6.21749 0.512207 5.6968 0.71109 5.2946 1.07083L0.907101 4.91721C0.674832 5.12494 0.489484 5.37976 0.363396 5.66472C0.237308 5.94968 0.173374 6.25823 0.175851 6.56983V12.961C0.175851 13.5428 0.406977 14.1008 0.818385 14.5122C1.22979 14.9236 1.78778 15.1547 2.3696 15.1547H11.1446C11.7264 15.1547 12.2844 14.9236 12.6958 14.5122C13.1072 14.1008 13.3384 13.5428 13.3384 12.961V6.56252C13.3398 6.25215 13.2754 5.94501 13.1493 5.66139C13.0232 5.37776 12.8384 5.12412 12.6071 4.91721ZM8.2196 13.6922H5.2946V10.036C5.2946 9.84202 5.37164 9.65602 5.50878 9.51888C5.64592 9.38175 5.83191 9.30471 6.02585 9.30471H7.48835C7.68229 9.30471 7.86829 9.38175 8.00542 9.51888C8.14256 9.65602 8.2196 9.84202 8.2196 10.036V13.6922ZM11.8759 12.961C11.8759 13.1549 11.7988 13.3409 11.6617 13.478C11.5245 13.6152 11.3385 13.6922 11.1446 13.6922H9.6821V10.036C9.6821 9.45414 9.45097 8.89615 9.03957 8.48474C8.62816 8.07333 8.07017 7.84221 7.48835 7.84221H6.02585C5.44403 7.84221 4.88604 8.07333 4.47463 8.48474C4.06323 8.89615 3.8321 9.45414 3.8321 10.036V13.6922H2.3696C2.17566 13.6922 1.98966 13.6152 1.85253 13.478C1.71539 13.3409 1.63835 13.1549 1.63835 12.961V6.56252C1.63848 6.45869 1.66072 6.35608 1.70359 6.26152C1.74646 6.16696 1.80897 6.08261 1.88698 6.01408L6.27448 2.17502C6.40792 2.05779 6.57947 1.99313 6.7571 1.99313C6.93473 1.99313 7.10628 2.05779 7.23973 2.17502L11.6272 6.01408C11.7052 6.08261 11.7677 6.16696 11.8106 6.26152C11.8535 6.35608 11.8757 6.45869 11.8759 6.56252V12.961Z" fill="#0177FD"/>
</svg>
