<svg width="15" height="15" viewBox="0 0 15 15" fill="none" xmlns="http://www.w3.org/2000/svg">
<path d="M7.48438 3.90625C7.29044 3.90625 7.10444 3.98329 6.96731 4.12043C6.83017 4.25756 6.75313 4.44356 6.75313 4.6375V7.5625C6.75313 7.75644 6.83017 7.94244 6.96731 8.07957C7.10444 8.21671 7.29044 8.29375 7.48438 8.29375C7.67832 8.29375 7.86431 8.21671 8.00145 8.07957C8.13859 7.94244 8.21563 7.75644 8.21563 7.5625V4.6375C8.21563 4.44356 8.13859 4.25756 8.00145 4.12043C7.86431 3.98329 7.67832 3.90625 7.48438 3.90625ZM8.15713 10.2096C8.14112 10.163 8.11899 10.1188 8.09132 10.078L8.00357 9.96831C7.90073 9.86685 7.77015 9.79811 7.6283 9.77078C7.48644 9.74345 7.33967 9.75875 7.2065 9.81475C7.11789 9.85178 7.03627 9.90372 6.96519 9.96831C6.89742 10.0366 6.8438 10.1177 6.80741 10.2068C6.77102 10.2959 6.75257 10.3913 6.75313 10.4875C6.75428 10.5831 6.77416 10.6775 6.81163 10.7654C6.84447 10.8561 6.89687 10.9385 6.96511 11.0068C7.03335 11.075 7.11576 11.1274 7.2065 11.1603C7.29403 11.1989 7.38868 11.2189 7.48438 11.2189C7.58008 11.2189 7.67472 11.1989 7.76225 11.1603C7.853 11.1274 7.93541 11.075 8.00365 11.0068C8.07189 10.9385 8.12429 10.8561 8.15713 10.7654C8.1946 10.6775 8.21447 10.5831 8.21563 10.4875C8.21922 10.4388 8.21922 10.3899 8.21563 10.3413C8.20304 10.2946 8.1833 10.2502 8.15713 10.2096ZM7.48438 0.25C6.0381 0.25 4.62431 0.678871 3.42177 1.48238C2.21924 2.28589 1.28198 3.42794 0.728509 4.76413C0.175043 6.10031 0.0302315 7.57061 0.312386 8.9891C0.59454 10.4076 1.29099 11.7105 2.31366 12.7332C3.33633 13.7559 4.63929 14.4523 6.05778 14.7345C7.47627 15.0166 8.94657 14.8718 10.2828 14.3184C11.6189 13.7649 12.761 12.8276 13.5645 11.6251C14.368 10.4226 14.7969 9.00878 14.7969 7.5625C14.7969 6.60221 14.6077 5.65132 14.2402 4.76413C13.8728 3.87693 13.3341 3.07081 12.6551 2.39178C11.9761 1.71275 11.1699 1.17412 10.2828 0.806631C9.39556 0.439143 8.44467 0.25 7.48438 0.25ZM7.48438 13.4125C6.32736 13.4125 5.19632 13.0694 4.23429 12.4266C3.27226 11.7838 2.52246 10.8701 2.07968 9.8012C1.63691 8.73225 1.52106 7.55601 1.74678 6.42122C1.97251 5.28643 2.52967 4.24406 3.3478 3.42593C4.16594 2.60779 5.20831 2.05063 6.3431 1.82491C7.47789 1.59918 8.65413 1.71503 9.72308 2.1578C10.792 2.60058 11.7057 3.35039 12.3485 4.31241C12.9913 5.27444 13.3344 6.40548 13.3344 7.5625C13.3344 9.11402 12.718 10.602 11.621 11.6991C10.5239 12.7962 9.03589 13.4125 7.48438 13.4125Z" fill="#A4B4CB"/>
</svg>
