<svg width="15" height="16" viewBox="0 0 15 16" fill="none" xmlns="http://www.w3.org/2000/svg">
<path d="M6.025 4.8499H10.4125C10.6064 4.8499 10.7924 4.77286 10.9296 4.63572C11.0667 4.49859 11.1438 4.31259 11.1438 4.11865C11.1438 3.92471 11.0667 3.73872 10.9296 3.60158C10.7924 3.46444 10.6064 3.3874 10.4125 3.3874H6.025C5.83106 3.3874 5.64506 3.46444 5.50793 3.60158C5.37079 3.73872 5.29375 3.92471 5.29375 4.11865C5.29375 4.31259 5.37079 4.49859 5.50793 4.63572C5.64506 4.77286 5.83106 4.8499 6.025 4.8499ZM4.5625 7.7749H10.4125C10.6064 7.7749 10.7924 7.69786 10.9296 7.56072C11.0667 7.42359 11.1438 7.23759 11.1438 7.04365C11.1438 6.84971 11.0667 6.66372 10.9296 6.52658C10.7924 6.38944 10.6064 6.3124 10.4125 6.3124H4.5625C4.36856 6.3124 4.18256 6.38944 4.04543 6.52658C3.90829 6.66372 3.83125 6.84971 3.83125 7.04365C3.83125 7.23759 3.90829 7.42359 4.04543 7.56072C4.18256 7.69786 4.36856 7.7749 4.5625 7.7749ZM4.5625 10.6999H10.4125C10.6064 10.6999 10.7924 10.6229 10.9296 10.4857C11.0667 10.3486 11.1438 10.1626 11.1438 9.96865C11.1438 9.77471 11.0667 9.58872 10.9296 9.45158C10.7924 9.31445 10.6064 9.2374 10.4125 9.2374H4.5625C4.36856 9.2374 4.18256 9.31445 4.04543 9.45158C3.90829 9.58872 3.83125 9.77471 3.83125 9.96865C3.83125 10.1626 3.90829 10.3486 4.04543 10.4857C4.18256 10.6229 4.36856 10.6999 4.5625 10.6999ZM13.3375 0.462402H1.6375C1.44356 0.462402 1.25756 0.539445 1.12043 0.67658C0.983292 0.813716 0.90625 0.999713 0.90625 1.19365V14.3562C0.90625 14.492 0.944066 14.6251 1.01546 14.7406C1.08686 14.8561 1.18901 14.9495 1.31048 15.0102C1.43194 15.0709 1.56792 15.0966 1.70317 15.0844C1.83842 15.0723 1.96761 15.0226 2.07625 14.9412L3.58994 13.8077L5.09631 14.9412C5.22289 15.0361 5.37684 15.0874 5.53506 15.0874C5.69328 15.0874 5.84724 15.0361 5.97381 14.9412L7.4875 13.8077L9.00119 14.9412C9.12776 15.0361 9.28172 15.0874 9.43994 15.0874C9.59816 15.0874 9.75211 15.0361 9.87869 14.9412L11.3851 13.8077L12.8988 14.9412C13.0079 15.0225 13.1376 15.0718 13.2733 15.0834C13.4089 15.095 13.5451 15.0686 13.6666 15.007C13.7872 14.9462 13.8886 14.8532 13.9596 14.7384C14.0305 14.6235 14.0683 14.4912 14.0688 14.3562V1.19365C14.0688 0.999713 13.9917 0.813716 13.8546 0.67658C13.7174 0.539445 13.5314 0.462402 13.3375 0.462402ZM12.6063 12.8937L11.8238 12.3087C11.6972 12.2137 11.5433 12.1624 11.3851 12.1624C11.2268 12.1624 11.0729 12.2137 10.9463 12.3087L9.43994 13.4421L7.92625 12.3087C7.79967 12.2137 7.64572 12.1624 7.4875 12.1624C7.32928 12.1624 7.17533 12.2137 7.04875 12.3087L5.53506 13.4421L4.02869 12.3087C3.90211 12.2137 3.74816 12.1624 3.58994 12.1624C3.43172 12.1624 3.27776 12.2137 3.15119 12.3087L2.36875 12.8937V1.9249H12.6063V12.8937Z" fill="#A4B4CB"/>
</svg>
