<svg width="15" height="16" viewBox="0 0 15 16" fill="none" xmlns="http://www.w3.org/2000/svg">
<path d="M4.57999 6.99434C4.43536 6.99434 4.29398 7.03722 4.17373 7.11757C4.05347 7.19793 3.95975 7.31213 3.9044 7.44575C3.84905 7.57937 3.83457 7.7264 3.86279 7.86825C3.891 8.01009 3.96065 8.14039 4.06291 8.24266C4.16518 8.34493 4.29548 8.41457 4.43733 8.44279C4.57917 8.471 4.72621 8.45652 4.85982 8.40117C4.99344 8.34583 5.10765 8.2521 5.188 8.13185C5.26835 8.01159 5.31124 7.87021 5.31124 7.72559C5.31124 7.53165 5.23419 7.34565 5.09706 7.20851C4.95992 7.07138 4.77393 6.99434 4.57999 6.99434ZM7.50499 6.99434C7.36036 6.99434 7.21898 7.03722 7.09873 7.11757C6.97847 7.19793 6.88475 7.31213 6.8294 7.44575C6.77405 7.57937 6.75957 7.7264 6.78779 7.86825C6.816 8.01009 6.88565 8.14039 6.98791 8.24266C7.09018 8.34493 7.22048 8.41457 7.36233 8.44279C7.50418 8.471 7.65121 8.45652 7.78482 8.40117C7.91844 8.34583 8.03265 8.2521 8.113 8.13185C8.19335 8.01159 8.23624 7.87021 8.23624 7.72559C8.23624 7.53165 8.15919 7.34565 8.02206 7.20851C7.88492 7.07138 7.69893 6.99434 7.50499 6.99434ZM10.43 6.99434C10.2854 6.99434 10.144 7.03722 10.0237 7.11757C9.90347 7.19793 9.80975 7.31213 9.7544 7.44575C9.69905 7.57937 9.68457 7.7264 9.71279 7.86825C9.741 8.01009 9.81065 8.14039 9.91291 8.24266C10.0152 8.34493 10.1455 8.41457 10.2873 8.44279C10.4292 8.471 10.5762 8.45652 10.7098 8.40117C10.8434 8.34583 10.9576 8.2521 11.038 8.13185C11.1184 8.01159 11.1612 7.87021 11.1612 7.72559C11.1612 7.53165 11.0842 7.34565 10.9471 7.20851C10.8099 7.07138 10.6239 6.99434 10.43 6.99434ZM7.50499 0.413086C6.5447 0.413086 5.59381 0.602229 4.70661 0.969717C3.81942 1.3372 3.0133 1.87584 2.33427 2.55487C0.962908 3.92623 0.192486 5.78619 0.192486 7.72559C0.186094 9.41414 0.770753 11.0517 1.84511 12.3544L0.382611 13.8169C0.281145 13.9197 0.21241 14.0503 0.18508 14.1922C0.15775 14.334 0.17305 14.4808 0.229049 14.614C0.289785 14.7455 0.388245 14.8561 0.51193 14.9316C0.635616 15.0071 0.778949 15.0442 0.923736 15.0381H7.50499C9.44438 15.0381 11.3043 14.2677 12.6757 12.8963C14.0471 11.5249 14.8175 9.66498 14.8175 7.72559C14.8175 5.78619 14.0471 3.92623 12.6757 2.55487C11.3043 1.18351 9.44438 0.413086 7.50499 0.413086ZM7.50499 13.5756H2.68605L3.36611 12.8955C3.43521 12.8278 3.49017 12.747 3.52783 12.6579C3.56549 12.5688 3.58508 12.4731 3.58549 12.3763C3.58274 12.1835 3.50389 11.9995 3.36611 11.8645C2.4086 10.908 1.81233 9.64917 1.67889 8.30239C1.54545 6.95562 1.88309 5.60423 2.6343 4.47849C3.3855 3.35274 4.50378 2.52227 5.79863 2.12858C7.09347 1.73488 8.48476 1.80232 9.73546 2.31939C10.9862 2.83646 12.0189 3.77119 12.6577 4.96431C13.2965 6.15743 13.5019 7.53513 13.2388 8.86269C12.9757 10.1902 12.2605 11.3855 11.215 12.2449C10.1695 13.1042 8.85836 13.5745 7.50499 13.5756Z" fill="#A4B4CB"/>
</svg>
