<svg width="15" height="12" viewBox="0 0 15 12" fill="none" xmlns="http://www.w3.org/2000/svg">
<path d="M3.82812 8.13721H6.02187C6.21581 8.13721 6.40181 8.06016 6.53895 7.92303C6.67608 7.78589 6.75312 7.5999 6.75312 7.40596C6.75312 7.21202 6.67608 7.02602 6.53895 6.88889C6.40181 6.75175 6.21581 6.67471 6.02187 6.67471H3.82812C3.63419 6.67471 3.44819 6.75175 3.31105 6.88889C3.17392 7.02602 3.09687 7.21202 3.09687 7.40596C3.09687 7.5999 3.17392 7.78589 3.31105 7.92303C3.44819 8.06016 3.63419 8.13721 3.82812 8.13721ZM12.6031 0.824707H2.36562C1.78381 0.824707 1.22582 1.05583 0.81441 1.46724C0.403002 1.87865 0.171875 2.43664 0.171875 3.01846V9.59971C0.171875 10.1815 0.403002 10.7395 0.81441 11.1509C1.22582 11.5623 1.78381 11.7935 2.36562 11.7935H12.6031C13.1849 11.7935 13.7429 11.5623 14.1543 11.1509C14.5657 10.7395 14.7969 10.1815 14.7969 9.59971V3.01846C14.7969 2.43664 14.5657 1.87865 14.1543 1.46724C13.7429 1.05583 13.1849 0.824707 12.6031 0.824707ZM13.3344 9.59971C13.3344 9.79365 13.2573 9.97964 13.1202 10.1168C12.9831 10.2539 12.7971 10.331 12.6031 10.331H2.36562C2.17169 10.331 1.98569 10.2539 1.84855 10.1168C1.71142 9.97964 1.63437 9.79365 1.63437 9.59971V5.21221H13.3344V9.59971ZM13.3344 3.74971H1.63437V3.01846C1.63437 2.82452 1.71142 2.63852 1.84855 2.50139C1.98569 2.36425 2.17169 2.28721 2.36562 2.28721H12.6031C12.7971 2.28721 12.9831 2.36425 13.1202 2.50139C13.2573 2.63852 13.3344 2.82452 13.3344 3.01846V3.74971Z" fill="#A4B4CB"/>
</svg>
