<svg width="15" height="15" viewBox="0 0 15 15" fill="none" xmlns="http://www.w3.org/2000/svg">
<path d="M14.2996 5.72211L12.9176 5.26142L13.5684 3.9598C13.6344 3.82356 13.6564 3.6702 13.6315 3.52088C13.6066 3.37157 13.536 3.23366 13.4294 3.12617L11.8719 1.56861C11.7638 1.46045 11.6246 1.38888 11.4737 1.36395C11.3229 1.33903 11.168 1.36202 11.0309 1.42967L9.72931 2.08049L9.26863 0.698424C9.21997 0.554362 9.12762 0.429051 9.00442 0.339928C8.88122 0.250805 8.7333 0.202304 8.58125 0.201174H6.3875C6.2342 0.200779 6.08465 0.248573 5.95999 0.337803C5.83533 0.427032 5.74187 0.553183 5.69282 0.698424L5.23213 2.08049L3.9305 1.42967C3.79426 1.3637 3.6409 1.34163 3.49159 1.36652C3.34227 1.39141 3.20436 1.46202 3.09688 1.56861L1.53931 3.12617C1.43115 3.23423 1.35958 3.37347 1.33466 3.52431C1.30974 3.67515 1.33272 3.83001 1.40038 3.96711L2.05119 5.26874L0.669128 5.72942C0.525066 5.77808 0.399754 5.87043 0.310631 5.99363C0.221508 6.11683 0.173007 6.26475 0.171877 6.4168V8.61055C0.171482 8.76385 0.219276 8.9134 0.308506 9.03806C0.397735 9.16272 0.523886 9.25618 0.669128 9.30524L2.05119 9.76592L1.40038 11.0675C1.3344 11.2038 1.31234 11.3572 1.33722 11.5065C1.36211 11.6558 1.43272 11.7937 1.53931 11.9012L3.09688 13.4587C3.20493 13.5669 3.34417 13.6385 3.49501 13.6634C3.64585 13.6883 3.80071 13.6653 3.93782 13.5977L5.23944 12.9469L5.70013 14.3289C5.74918 14.4742 5.84265 14.6003 5.96731 14.6895C6.09196 14.7788 6.24151 14.8266 6.39481 14.8262H8.58856C8.74187 14.8266 8.89142 14.7788 9.01608 14.6895C9.14073 14.6003 9.2342 14.4742 9.28325 14.3289L9.74394 12.9469L11.0456 13.5977C11.1809 13.662 11.3328 13.6831 11.4806 13.6583C11.6284 13.6334 11.765 13.5638 11.8719 13.4587L13.4294 11.9012C13.5376 11.7931 13.6092 11.6539 13.6341 11.503C13.659 11.3522 13.636 11.1973 13.5684 11.0602L12.9176 9.75861L14.2996 9.29792C14.4437 9.24927 14.569 9.15692 14.6581 9.03372C14.7472 8.91052 14.7957 8.7626 14.7969 8.61055V6.4168C14.7973 6.2635 14.7495 6.11395 14.6603 5.98929C14.571 5.86463 14.4449 5.77117 14.2996 5.72211ZM13.3344 8.08405L12.4569 8.37655C12.2551 8.442 12.07 8.55057 11.9143 8.69472C11.7587 8.83887 11.6363 9.01515 11.5556 9.21133C11.4749 9.40751 11.4378 9.61891 11.447 9.83084C11.4561 10.0428 11.5113 10.2502 11.6086 10.4387L12.0254 11.2723L11.2211 12.0767L10.4094 11.6379C10.2219 11.5445 10.0164 11.4925 9.80706 11.4853C9.59767 11.4782 9.38919 11.5161 9.19573 11.5965C9.00228 11.677 8.82837 11.798 8.68576 11.9515C8.54316 12.105 8.4352 12.2873 8.36919 12.4862L8.07669 13.3637H6.914L6.6215 12.4862C6.55605 12.2844 6.44748 12.0993 6.30334 11.9436C6.15919 11.788 5.98291 11.6656 5.78672 11.5849C5.59054 11.5042 5.37915 11.4671 5.16721 11.4763C4.95527 11.4854 4.74787 11.5406 4.55938 11.6379L3.72575 12.0547L2.92138 11.2504L3.36013 10.4387C3.45745 10.2502 3.51261 10.0428 3.52177 9.83084C3.53093 9.61891 3.49387 9.40751 3.41317 9.21133C3.33247 9.01515 3.21006 8.83887 3.05443 8.69472C2.89879 8.55057 2.71366 8.442 2.51188 8.37655L1.63438 8.08405V6.9433L2.51188 6.6508C2.71366 6.58535 2.89879 6.47678 3.05443 6.33263C3.21006 6.18848 3.33247 6.0122 3.41317 5.81602C3.49387 5.61983 3.53093 5.40844 3.52177 5.19651C3.51261 4.98457 3.45745 4.77716 3.36013 4.58867L2.94332 3.77699L3.74769 2.97261L4.55938 3.38942C4.74787 3.48675 4.95527 3.5419 5.16721 3.55106C5.37915 3.56022 5.59054 3.52317 5.78672 3.44247C5.98291 3.36177 6.15919 3.23936 6.30334 3.08372C6.44748 2.92809 6.55605 2.74296 6.6215 2.54117L6.914 1.66367H8.05475L8.34725 2.54117C8.41271 2.74296 8.52127 2.92809 8.66542 3.08372C8.80957 3.23936 8.98585 3.36177 9.18203 3.44247C9.37822 3.52317 9.58961 3.56022 9.80155 3.55106C10.0135 3.5419 10.2209 3.48675 10.4094 3.38942L11.243 2.97261L12.0474 3.77699L11.6086 4.58867C11.5152 4.7762 11.4632 4.98161 11.456 5.191C11.4489 5.40038 11.4868 5.60886 11.5672 5.80232C11.6477 5.99577 11.7687 6.16969 11.9222 6.31229C12.0757 6.45489 12.258 6.56285 12.4569 6.62886L13.3344 6.92136V8.08405ZM7.48438 4.58867C6.90587 4.58867 6.34035 4.76022 5.85934 5.08163C5.37832 5.40303 5.00342 5.85985 4.78203 6.39433C4.56064 6.9288 4.50272 7.51692 4.61558 8.08431C4.72844 8.65171 5.00702 9.17289 5.41609 9.58196C5.82516 9.99103 6.34634 10.2696 6.91374 10.3825C7.48113 10.4953 8.06925 10.4374 8.60373 10.216C9.1382 9.99464 9.59502 9.61973 9.91643 9.13872C10.2378 8.6577 10.4094 8.09219 10.4094 7.51367C10.4094 6.73792 10.1012 5.99393 9.55266 5.44539C9.00412 4.89684 8.26014 4.58867 7.48438 4.58867ZM7.48438 8.97617C7.19512 8.97617 6.91236 8.8904 6.67186 8.7297C6.43135 8.569 6.2439 8.34059 6.1332 8.07335C6.02251 7.80611 5.99355 7.51205 6.04998 7.22835C6.10641 6.94466 6.2457 6.68407 6.45023 6.47953C6.65477 6.275 6.91536 6.13571 7.19906 6.07928C7.48276 6.02284 7.77681 6.05181 8.04405 6.1625C8.31129 6.27319 8.5397 6.46065 8.7004 6.70115C8.8611 6.94166 8.94688 7.22442 8.94688 7.51367C8.94688 7.90155 8.79279 8.27355 8.51852 8.54782C8.24425 8.82209 7.87226 8.97617 7.48438 8.97617Z" fill="#A4B4CB"/>
</svg>
